<svg xmlns="http://www.w3.org/2000/svg" viewBox="0 0 800 960">
<defs>
 <linearGradient id="bg" x1="0" y1="0" x2="1" y2="1"><stop stop-color="#111d3a"/><stop offset="1" stop-color="#090c16"/></linearGradient>
 <linearGradient id="g" x1="0" y1="0" x2="1" y2="1"><stop stop-color="#20d9ff"/><stop offset=".48" stop-color="#4b7cff"/><stop offset="1" stop-color="#8c4dff"/></linearGradient>
 <radialGradient id="r"><stop stop-color="#4b7cff" stop-opacity=".55"/><stop offset="1" stop-color="#4b7cff" stop-opacity="0"/></radialGradient>
 <filter id="blur"><feGaussianBlur stdDeviation="28"/></filter>
</defs>
<rect width="800" height="960" fill="url(#bg)"/>
<circle cx="650" cy="170" r="230" fill="url(#r)" filter="url(#blur)"/>
<path d="M0 720L800 450V960H0Z" fill="#0d1428"/>
<g opacity=".14" stroke="#8bb7ff"><path d="M0 110H800M0 210H800M0 310H800M0 410H800M0 510H800M0 610H800M0 710H800M0 810H800"/><path d="M100 0V960M200 0V960M300 0V960M400 0V960M500 0V960M600 0V960M700 0V960"/></g>
<rect x="110" y="190" width="580" height="410" rx="30" fill="#0a0f1e" stroke="#516aa3"/>
<rect x="145" y="230" width="510" height="315" rx="19" fill="#111c34"/>
<circle cx="180" cy="264" r="6" fill="#ff6580"/><circle cx="201" cy="264" r="6" fill="#ffd166"/><circle cx="222" cy="264" r="6" fill="#4ee0b8"/>
<rect x="180" y="305" width="180" height="22" rx="8" fill="#263858"/>
<rect x="180" y="345" width="125" height="12" rx="6" fill="#1e2c49"/>
<rect x="180" y="372" width="170" height="12" rx="6" fill="#1e2c49"/>
<path d="M405 460C455 395 495 430 535 350C560 302 605 315 625 330" fill="none" stroke="url(#g)" stroke-width="12" stroke-linecap="round"/>
<circle cx="405" cy="460" r="10" fill="#20d9ff"/><circle cx="535" cy="350" r="10" fill="#607bff"/><circle cx="625" cy="330" r="10" fill="#9a58ff"/>
<rect x="175" y="620" width="450" height="34" rx="17" fill="#17243f"/>
<path d="M335 600H465L505 665H295Z" fill="#1d2b49"/>
<g transform="translate(125 710)">
 <rect width="230" height="150" rx="22" fill="#101a31" stroke="#385080"/>
 <rect x="25" y="28" width="95" height="12" rx="6" fill="#263a61"/>
 <rect x="25" y="55" width="175" height="10" rx="5" fill="#1c2a47"/>
 <rect x="25" y="78" width="138" height="10" rx="5" fill="#1c2a47"/>
 <rect x="25" y="110" width="72" height="18" rx="9" fill="url(#g)"/>
</g>
<g transform="translate(420 690)">
 <rect width="250" height="185" rx="22" fill="#101a31" stroke="#385080"/>
 <circle cx="70" cy="82" r="42" fill="none" stroke="#253657" stroke-width="18"/>
 <path d="M70 40a42 42 0 0 1 38 60" fill="none" stroke="url(#g)" stroke-width="18" stroke-linecap="round"/>
 <rect x="135" y="48" width="80" height="10" rx="5" fill="#263a61"/>
 <rect x="135" y="75" width="58" height="10" rx="5" fill="#1c2a47"/>
 <rect x="135" y="102" width="92" height="10" rx="5" fill="#1c2a47"/>
 <rect x="28" y="147" width="195" height="9" rx="5" fill="#1c2a47"/>
</g>
</svg>