<svg xmlns="http://www.w3.org/2000/svg" viewBox="0 0 700 900"><defs><linearGradient id="g" x1="0" y1="0" x2="1" y2="1"><stop stop-color="#111a30"/><stop offset="1" stop-color="#05070c"/></linearGradient><linearGradient id="a"><stop stop-color="#20d9ff"/><stop offset="1" stop-color="#7a4cff"/></linearGradient></defs><rect width="700" height="900" fill="url(#g)"/><circle cx="535" cy="180" r="240" fill="#5b3cff" opacity=".17"/><g opacity=".1" stroke="#fff"><path d="M0 150H700M0 300H700M0 450H700M0 600H700M0 750H700"/><path d="M140 0V900M280 0V900M420 0V900M560 0V900"/></g><text x="65" y="110" fill="#91a5cb" font-family="Arial" font-size="18" letter-spacing="8">BRAND SYSTEM / 01</text><path d="M118 360L350 150l232 210-232 210z" fill="none" stroke="url(#a)" stroke-width="8"/><path d="M220 360L350 240l130 120-130 120z" fill="#0c1427" stroke="#70a5ff" stroke-width="3"/><text x="286" y="385" fill="white" font-family="Arial" font-size="66" font-weight="bold">N</text><rect x="65" y="645" width="570" height="120" rx="22" fill="#0b1120" stroke="#31476f"/><circle cx="125" cy="705" r="28" fill="#20d9ff"/><circle cx="190" cy="705" r="28" fill="#4b7cff"/><circle cx="255" cy="705" r="28" fill="#8c4dff"/><rect x="360" y="682" width="205" height="14" rx="7" fill="#31476f"/><rect x="360" y="715" width="135" height="11" rx="5" fill="#223452"/></svg>