<svg xmlns="http://www.w3.org/2000/svg" viewBox="0 0 700 480"><defs><linearGradient id="g" x1="0" y1="0" x2="1" y2="1"><stop stop-color="#17294c"/><stop offset="1" stop-color="#080b14"/></linearGradient><linearGradient id="a"><stop stop-color="#20d9ff"/><stop offset=".5" stop-color="#4b7cff"/><stop offset="1" stop-color="#8c4dff"/></linearGradient></defs><rect width="700" height="480" fill="url(#g)"/><rect x="48" y="50" width="604" height="380" rx="24" fill="#0b1120" stroke="#45608f"/><circle cx="83" cy="83" r="6" fill="#ff6380"/><circle cx="103" cy="83" r="6" fill="#ffd166"/><circle cx="123" cy="83" r="6" fill="#4ee0b8"/><rect x="80" y="125" width="245" height="22" rx="8" fill="#31496f"/><rect x="80" y="165" width="180" height="10" rx="5" fill="#223654"/><rect x="80" y="188" width="210" height="10" rx="5" fill="#223654"/><rect x="80" y="225" width="112" height="38" rx="12" fill="url(#a)"/><rect x="380" y="120" width="220" height="220" rx="28" fill="#14233e"/><circle cx="490" cy="215" r="70" fill="none" stroke="#273a5d" stroke-width="28"/><path d="M490 145a70 70 0 0 1 61 104" fill="none" stroke="url(#a)" stroke-width="28" stroke-linecap="round"/><rect x="80" y="330" width="245" height="58" rx="14" fill="#111d34"/><rect x="100" y="348" width="130" height="9" rx="4" fill="#2e456c"/><rect x="100" y="369" width="88" height="7" rx="3" fill="#20324f"/></svg>