<svg xmlns="http://www.w3.org/2000/svg" viewBox="0 0 700 480"><defs><linearGradient id="g" x1="0" y1="0" x2="1" y2="1"><stop stop-color="#28154b"/><stop offset=".55" stop-color="#102654"/><stop offset="1" stop-color="#07101f"/></linearGradient><linearGradient id="a"><stop stop-color="#20d9ff"/><stop offset=".45" stop-color="#4b7cff"/><stop offset="1" stop-color="#b04dff"/></linearGradient></defs><rect width="700" height="480" fill="url(#g)"/><circle cx="570" cy="80" r="170" fill="#7c4dff" opacity=".2"/><path d="M-20 420L280 90l135 155L560 70l180 210v200H-20z" fill="#0a1123" opacity=".85"/><text x="60" y="100" fill="#9fb5df" font-family="Arial" font-size="16" letter-spacing="7">CREATIVE CAMPAIGN</text><text x="55" y="210" fill="white" font-family="Arial" font-size="72" font-weight="bold">MOVE</text><text x="55" y="285" fill="url(#a)" font-family="Arial" font-size="72" font-weight="bold">DIFFERENT.</text><rect x="60" y="325" width="150" height="42" rx="21" fill="url(#a)"/><path d="M455 365c-75-45-70-135-15-198 54-62 111-24 125 14 14 37-15 60-51 71-35 11-42 50-14 73 29 25 66 4 76-24" fill="none" stroke="url(#a)" stroke-width="18" stroke-linecap="round"/></svg>